<?xml version="1.0" encoding="utf-8"?>
<!-- Generator: Adobe Illustrator 24.1.2, SVG Export Plug-In . SVG Version: 6.00 Build 0)  -->
<svg version="1.1" id="Layer_1" xmlns="http://www.w3.org/2000/svg" xmlns:xlink="http://www.w3.org/1999/xlink" x="0px" y="0px"
	 viewBox="0 0 841.89 595.28" style="enable-background:new 0 0 841.89 595.28;" xml:space="preserve">
<style type="text/css">
	.st0{fill:#3B73FC;}
</style>
<g>
	<path class="st0" d="M420.95,376.13c-43.28,0-78.5-35.21-78.5-78.5c0-43.28,35.21-78.5,78.5-78.5c43.28,0,78.5,35.21,78.5,78.5
		C499.44,340.92,464.23,376.13,420.95,376.13 M420.95,202.46c-52.48,0-95.18,42.7-95.18,95.18s42.7,95.18,95.18,95.18
		c52.48,0,95.18-42.7,95.18-95.18S473.43,202.46,420.95,202.46"/>
	<path class="st0" d="M423.41,338.77L423.41,338.77c-4.68,0-8.47-3.8-8.47-8.48l0.02-43.96c0-5.84-4.75-10.59-10.59-10.59
		c-5.84,0-10.59,4.75-10.59,10.59l-0.02,43.96c0,4.68-3.8,8.47-8.48,8.47c-4.68,0-8.47-3.8-8.47-8.48l0.02-43.96
		c0-15.18,12.35-27.53,27.54-27.53c15.18,0,27.54,12.35,27.54,27.54l-0.02,43.96C431.89,334.98,428.09,338.78,423.41,338.77"/>
	<path class="st0" d="M461.54,338.77L461.54,338.77c-4.68,0-8.47-3.8-8.47-8.48l0.02-43.96c0-5.84-4.75-10.59-10.59-10.59
		c-5.84,0-10.59,4.75-10.59,10.59l-0.02,43.96c0,4.68-3.8,8.47-8.48,8.47c-4.68,0-8.47-3.8-8.47-8.48l0.02-43.96
		c0-15.18,12.35-27.53,27.54-27.53c15.18,0,27.54,12.35,27.54,27.54l-0.02,43.96C470.01,334.98,466.22,338.78,461.54,338.77"/>
	<path class="st0" d="M385.26,338.77L385.26,338.77c-4.68,0-8.47-3.8-8.47-8.48l0.02-43.96c0-4.22-2.48-7.87-6.05-9.57
		c-2.85-1.36-4.54-4.38-4.54-7.54c0-6.15,6.43-10.37,11.97-7.69c9.21,4.46,15.57,13.9,15.57,24.8l-0.02,43.96
		C393.74,334.98,389.94,338.78,385.26,338.77"/>
</g>
</svg>
