<?xml version="1.0" encoding="utf-8"?>
<!-- Generator: Adobe Illustrator 24.1.2, SVG Export Plug-In . SVG Version: 6.00 Build 0)  -->
<svg version="1.1" id="Layer_1" xmlns="http://www.w3.org/2000/svg" xmlns:xlink="http://www.w3.org/1999/xlink" x="0px" y="0px"
	 viewBox="0 0 841.89 595.28" style="enable-background:new 0 0 841.89 595.28;" xml:space="preserve">
<g>
	<path d="M280.15,249.22c-26.71,0-48.44,21.73-48.44,48.44c0,26.71,21.73,48.44,48.44,48.44l281.58-0.03
		c26.71,0,48.44-21.73,48.44-48.44c0-26.71-21.73-48.44-48.44-48.44L280.15,249.22z M280.15,355.74
		c-32.03,0-58.09-26.06-58.09-58.09c0-32.03,26.06-58.08,58.08-58.08h0l281.58-0.03c32.03,0,58.08,26.06,58.08,58.08
		c0,32.03-26.06,58.08-58.08,58.08L280.15,355.74z"/>
	<path d="M396.92,288.16h-10.53v-10.53h10.53c2.91,0,5.26,2.36,5.26,5.26C402.18,285.8,399.83,288.16,396.92,288.16"/>
	<path d="M396.84,327.91c-9.43,0-17.11-7.67-17.11-17.11l0.01-45.9c0-2.91,2.36-5.26,5.26-5.26c2.91,0,5.26,2.36,5.26,5.26
		l-0.01,45.9c0,3.63,2.95,6.58,6.58,6.58c2.62,0,4.89-1.54,5.94-3.76c0.84-1.77,2.72-2.82,4.68-2.82c3.82,0,6.44,3.99,4.78,7.43
		C409.47,323.96,403.61,327.91,396.84,327.91"/>
	<path d="M281.04,322.15l-0.01-57.57c0-2.91,2.36-5.26,5.26-5.26c2.91,0,5.26,2.36,5.26,5.26l0.01,57.57c0,2.91-2.36,5.26-5.26,5.26
		S281.04,325.06,281.04,322.15"/>
	<path d="M312.38,326.37l-23.63-23.63l23.63-23.63c2.05-2.06,5.39-2.06,7.44,0c2.06,2.06,2.06,5.39,0,7.44l-16.18,16.18l16.18,16.18
		c2.06,2.06,2.06,5.39,0,7.44C317.77,328.42,314.44,328.42,312.38,326.37"/>
	<path d="M334.66,297.48h26.97c-2.11-5.39-7.36-9.21-13.48-9.21C342.02,288.27,336.77,292.09,334.66,297.48 M348.14,327.74
		c-14.32,0-25.86-12.1-24.95-26.61c0.78-12.44,10.9-22.56,23.34-23.34c14.51-0.91,26.61,10.63,26.61,24.95
		c0,2.91-2.36,5.26-5.26,5.26h-33.22c2.11,5.39,7.36,9.21,13.48,9.21c3.29,0,6.38-1.08,8.89-3.04c1.87-1.47,4.49-1.53,6.4-0.11
		c2.77,2.05,2.87,6.21,0.15,8.33C359.22,325.81,353.77,327.74,348.14,327.74"/>
	<path d="M447.69,327.42L447.69,327.42c-2.91,0-5.26-2.36-5.26-5.27l0.01-27.31c0-3.63-2.95-6.58-6.58-6.58
		c-3.63,0-6.58,2.95-6.58,6.58l-0.01,27.31c0,2.91-2.36,5.26-5.27,5.26c-2.91,0-5.26-2.36-5.26-5.27l0.01-27.31
		c0-9.43,7.67-17.1,17.11-17.1c9.43,0,17.11,7.67,17.11,17.11l-0.01,27.31C452.96,325.06,450.6,327.42,447.69,327.42"/>
	<path d="M471.38,327.42L471.38,327.42c-2.91,0-5.26-2.36-5.26-5.27l0.01-27.31c0-3.63-2.95-6.58-6.58-6.58
		c-3.63,0-6.58,2.95-6.58,6.58l-0.01,27.31c0,2.91-2.36,5.26-5.27,5.26c-2.91,0-5.26-2.36-5.26-5.27l0.01-27.31
		c0-9.43,7.67-17.1,17.11-17.1c9.43,0,17.11,7.67,17.11,17.11l-0.01,27.31C476.64,325.06,474.28,327.42,471.38,327.42"/>
	<path d="M424,327.42L424,327.42c-2.91,0-5.26-2.36-5.26-5.27l0.01-27.31c0-2.62-1.54-4.89-3.76-5.94
		c-1.77-0.84-2.82-2.72-2.82-4.68c0-3.82,3.99-6.44,7.43-4.78c5.72,2.77,9.67,8.63,9.67,15.4l-0.01,27.31
		C429.26,325.06,426.9,327.42,424,327.42"/>
	<path d="M508.67,288.27c-7.98,0-14.47,6.49-14.47,14.47s6.49,14.47,14.47,14.47c7.98,0,14.47-6.49,14.47-14.47
		S516.65,288.27,508.67,288.27 M508.67,327.74c-13.79,0-25-11.22-25-25c0-13.79,11.22-25,25-25c13.79,0,25,11.21,25,25
		C533.67,316.53,522.46,327.74,508.67,327.74"/>
	<path d="M528.41,327.42L528.41,327.42c-2.91,0-5.26-2.36-5.26-5.26v-39.36c0-2.91,2.36-5.26,5.26-5.26c2.91,0,5.26,2.36,5.26,5.26
		v39.36C533.67,325.06,531.31,327.42,528.41,327.42"/>
	<path d="M552.97,283.94v-1.15c0-2.91-2.36-5.26-5.26-5.26c-2.91,0-5.26,2.36-5.26,5.26v23.46v15.89c0,2.91,2.36,5.26,5.26,5.26
		c2.91,0,5.26-2.36,5.26-5.26v-15.89c0-8.71,6.08-16.03,14.21-17.94c2.43-0.57,4.21-2.66,4.21-5.16c0-3.33-3.06-5.89-6.31-5.16
		C560.56,279.01,556.43,281.09,552.97,283.94"/>
</g>
</svg>
